<?xml version="1.0" standalone="no"?>
<!DOCTYPE svg PUBLIC "-//W3C//DTD SVG 20010904//EN"
 "http://www.w3.org/TR/2001/REC-SVG-20010904/DTD/svg10.dtd">
<svg version="1.0" xmlns="http://www.w3.org/2000/svg"
 width="333.000000pt" height="333.000000pt" viewBox="0 0 333.000000 333.000000"
 preserveAspectRatio="xMidYMid meet">

<g transform="translate(0.000000,333.000000) scale(0.100000,-0.100000)"
fill="#000000" stroke="none">
<path d="M0 1665 l0 -1665 1665 0 1665 0 0 1665 0 1665 -1665 0 -1665 0 0
-1665z m1725 975 c366 -35 610 -158 753 -380 176 -271 200 -759 52 -1068 -51
-106 -89 -161 -169 -245 -130 -136 -276 -221 -462 -271 -148 -40 -229 -46
-575 -46 l-324 0 0 1010 0 1010 308 0 c169 0 357 -5 417 -10z"/>
<path d="M1240 1640 l0 -792 253 4 c218 4 263 7 332 26 337 91 527 337 551
712 16 266 -52 492 -192 632 -83 83 -186 139 -322 175 -89 24 -118 26 -359 30
l-263 5 0 -792z"/>
</g>
</svg>
